<svg xmlns="http://www.w3.org/2000/svg" version="1.1" baseProfile="full" width="1200" height="600" style="position: absolute; left: 0px; top: 0px;"><path d="M 116.6533 38.2197 L 116.6621 38.208 L 116.7148 38.1875 L 116.7422 38.1914 L 116.748 38.1846 L 116.7432 38.1777 L 116.6953 38.1465 L 116.6494 38.1299 L 116.6201 38.1094 L 116.6611 38.0938 L 116.6641 38.0781 L 116.6436 38.0479 L 116.6328 38.0508 L 116.623 38.0479 L 116.5947 38.0547 L 116.584 38.0381 L 116.5527 38.0449 L 116.5479 38.0244 L 116.5166 38.0176 L 116.4824 38.0195 L 116.4727 38.0186 L 116.4629 38.0195 L 116.4531 38.0088 L 116.377 38.0205 L 116.3379 38.0186 L 116.3027 37.9795 L 116.293 37.9795 L 116.2734 37.9688 L 116.2275 37.9551 L 116.1729 37.9697 L 116.1621 37.958 L 116.1641 37.9199 L 116.0879 37.9141 L 116.1045 37.9395 L 116.0918 37.9482 L 116.0742 37.9805 L 116.0576 37.9844 L 116.0508 37.999 L 116.0557 38.0098 L 116.0391 38.0303 L 116.0684 38.0391 L 116.0508 38.0479 L 116.0479 38.0645 L 116.0635 38.0693 L 116.1016 38.083 L 116.1436 38.0791 L 116.1641 38.1123 L 116.2129 38.0986 L 116.2236 38.1123 L 116.2656 38.1299 L 116.2822 38.1494 L 116.293 38.1592 L 116.2891 38.2021 L 116.3184 38.1855 L 116.4395 38.2021 L 116.4785 38.1797 L 116.498 38.2139 L 116.5137 38.21 L 116.5293 38.1904 L 116.5635 38.1982 L 116.582 38.21 L 116.5928 38.209 L 116.6533 38.2197 Z" fill="rgba(230,169,97,1)" fill-opacity="1" stroke="#444" stroke-width="0.001771330139912159" paint-order="fill" stroke-opacity="1" stroke-dasharray="" stroke-linecap="butt" stroke-linejoin="miter" stroke-miterlimit="10" transform="matrix(244.45623779296875,0,0,-325.941650390625,-27952.3203125,12753.2626953125)" clip-path="none"></path><path d="M 117.1123 38.4814 L 117.0791 38.4346 L 117.1045 38.3896 L 117.0811 38.3701 L 117.0986 38.3555 L 117.1201 38.3301 L 117.1436 38.3193 L 117.1426 38.2998 L 117.1436 38.2891 L 117.1328 38.249 L 117.1377 38.2344 L 117.1104 38.2158 L 117.1182 38.1797 L 117.1436 38.1699 L 117.1523 38.1611 L 117.1221 38.1504 L 117.0869 38.127 L 117.0723 38.1309 L 117.0254 38.1162 L 117.0176 38.1045 L 117.0029 38.0986 L 116.9932 38.1006 L 116.9453 38.0859 L 116.9063 38.1113 L 116.873 38.1035 L 116.8633 38.1406 L 116.835 38.1514 L 116.8047 38.1445 L 116.7861 38.1709 L 116.7725 38.168 L 116.748 38.1846 L 116.7422 38.1914 L 116.7148 38.1875 L 116.6621 38.208 L 116.6533 38.2197 L 116.5928 38.209 L 116.582 38.21 L 116.5635 38.1982 L 116.5293 38.1904 L 116.5137 38.21 L 116.498 38.2139 L 116.4932 38.2578 L 116.4619 38.2686 L 116.458 38.3145 L 116.4619 38.3301 L 116.4941 38.3477 L 116.5117 38.4014 L 116.5381 38.3936 L 116.5723 38.4219 L 116.5967 38.4043 L 116.6182 38.4141 L 116.6436 38.4102 L 116.6621 38.3838 L 116.7334 38.3984 L 116.7529 38.4102 L 116.7832 38.3984 L 116.8174 38.4121 L 116.8379 38.4043 L 116.7822 38.3301 L 116.7832 38.3193 L 116.7725 38.2998 L 116.7734 38.2891 L 116.7607 38.2793 L 116.7842 38.2695 L 116.7715 38.2373 L 116.7725 38.21 L 116.8223 38.25 L 116.8428 38.2471 L 116.8477 38.2744 L 116.8574 38.2744 L 116.8574 38.2842 L 116.875 38.2725 L 116.8711 38.2588 L 116.8916 38.25 L 116.9336 38.2773 L 116.9453 38.2949 L 116.9414 38.3096 L 116.9482 38.3369 L 116.9316 38.3486 L 116.9238 38.3604 L 116.9014 38.3682 L 116.8682 38.3545 L 116.8623 38.3594 L 116.8877 38.4043 L 116.8926 38.4951 L 116.9395 38.4756 L 116.9619 38.4902 L 117.0137 38.5088 L 117.0215 38.5205 L 117.0537 38.5283 L 117.0781 38.5439 L 117.083 38.5293 L 117.0928 38.499 L 117.1123 38.4814 Z" fill="rgba(227,152,97,1)" fill-opacity="1" stroke="#444" stroke-width="0.001771330139912159" paint-order="fill" stroke-opacity="1" stroke-dasharray="" stroke-linecap="butt" stroke-linejoin="miter" stroke-miterlimit="10" transform="matrix(244.45623779296875,0,0,-325.941650390625,-27952.3203125,12753.2626953125)" clip-path="none"></path><path d="M 116.8779 37.8447 L 116.8438 37.8359 L 116.8154 37.8418 L 116.7588 37.8164 L 116.7441 37.7588 L 116.6982 37.7344 L 116.6904 37.7607 L 116.6563 37.7559 L 116.6328 37.7705 L 116.6064 37.7539 L 116.5635 37.7803 L 116.4971 37.791 L 116.4678 37.7842 L 116.4678 37.8145 L 116.4736 37.8291 L 116.4717 37.8389 L 116.4736 37.8496 L 116.4717 37.8604 L 116.4971 37.8701 L 116.5322 37.916 L 116.5537 37.9678 L 116.5576 38.0244 L 116.6533 38.0303 L 116.6729 38.0088 L 116.6836 38 L 116.6953 37.9863 L 116.8242 37.9658 L 116.8428 37.9492 L 116.8418 37.9297 L 116.8545 37.9189 L 116.8525 37.8887 L 116.8857 37.8672 L 116.8779 37.8447 Z" fill="rgba(213,194,111,1)" fill-opacity="1" stroke="#444" stroke-width="0.001771330139912159" paint-order="fill" stroke-opacity="1" stroke-dasharray="" stroke-linecap="butt" stroke-linejoin="miter" stroke-miterlimit="10" transform="matrix(244.45623779296875,0,0,-325.941650390625,-27952.3203125,12753.2626953125)" clip-path="none"></path><path d="M 117.8086 38.2393 L 117.792 38.2002 L 117.7832 38.1689 L 117.7617 38.1602 L 117.7666 38.1377 L 117.7363 38.1162 L 117.7061 38.0742 L 117.6729 38.0801 L 117.6133 38.0684 L 117.582 38.0742 L 117.5508 38.0527 L 117.5537 38.0391 L 117.542 38.0205 L 117.5381 38.0039 L 117.5234 37.9951 L 117.5039 37.9385 L 117.498 37.9346 L 117.4922 37.9424 L 117.4561 37.9346 L 117.4648 37.9727 L 117.4023 37.9883 L 117.3936 38.0098 L 117.3662 38.0205 L 117.3848 38.0498 L 117.3516 38.0586 L 117.3408 38.0742 L 117.3457 38.0977 L 117.3174 38.1045 L 117.3213 38.1211 L 117.3438 38.1318 L 117.3477 38.1543 L 117.3535 38.1592 L 117.3623 38.1797 L 117.373 38.1992 L 117.3711 38.2188 L 117.4131 38.2236 L 117.4922 38.2139 L 117.5625 38.2295 L 117.5781 38.2285 L 117.6035 38.2393 L 117.6016 38.2549 L 117.6162 38.2891 L 117.7197 38.2754 L 117.7627 38.2588 L 117.7881 38.2539 L 117.8086 38.2393 Z" fill="rgba(232,184,98,1)" fill-opacity="1" stroke="#444" stroke-width="0.001771330139912159" paint-order="fill" stroke-opacity="1" stroke-dasharray="" stroke-linecap="butt" stroke-linejoin="miter" stroke-miterlimit="10" transform="matrix(244.45623779296875,0,0,-325.941650390625,-27952.3203125,12753.2626953125)" clip-path="none"></path><path d="M 116.4521 38.5771 L 116.4434 38.5586 L 116.4238 38.5439 L 116.4434 38.5303 L 116.458 38.4932 L 116.5137 38.4824 L 116.5518 38.5059 L 116.5615 38.4785 L 116.5879 38.4746 L 116.5938 38.4609 L 116.6221 38.4775 L 116.6396 38.4541 L 116.6211 38.4316 L 116.6182 38.4141 L 116.5967 38.4043 L 116.5723 38.4219 L 116.5381 38.3936 L 116.5117 38.4014 L 116.4941 38.3477 L 116.4619 38.3301 L 116.458 38.3145 L 116.4424 38.3193 L 116.4297 38.3604 L 116.3926 38.3574 L 116.334 38.3623 L 116.3193 38.3447 L 116.1924 38.3799 L 116.1836 38.3594 L 116.1729 38.3496 L 116.1631 38.3389 L 116.1416 38.3408 L 116.1025 38.3193 L 116.0176 38.334 L 116.0225 38.3496 L 116.0332 38.3594 L 116.0303 38.3867 L 116.0439 38.4092 L 116.0137 38.4229 L 116.0342 38.4395 L 116.0225 38.4492 L 116.0107 38.4746 L 115.918 38.4912 L 115.9336 38.5186 L 115.9375 38.5342 L 115.9297 38.5547 L 115.958 38.5742 L 115.9746 38.5498 L 116.0039 38.5586 L 116.0332 38.5811 L 116.043 38.5674 L 116.0703 38.5859 L 116.1025 38.5781 L 116.1133 38.5801 L 116.1582 38.5703 L 116.1738 38.5889 L 116.1699 38.6064 L 116.2021 38.6201 L 116.2334 38.6279 L 116.2422 38.6406 L 116.2793 38.665 L 116.3184 38.6738 L 116.3418 38.6582 L 116.3574 38.6543 L 116.3809 38.6133 L 116.4141 38.6006 L 116.4219 38.5889 L 116.4521 38.5771 Z" fill="rgba(222,114,95,1)" fill-opacity="1" stroke="#444" stroke-width="0.001771330139912159" paint-order="fill" stroke-opacity="1" stroke-dasharray="" stroke-linecap="butt" stroke-linejoin="miter" stroke-miterlimit="10" transform="matrix(244.45623779296875,0,0,-325.941650390625,-27952.3203125,12753.2626953125)" clip-path="none"></path><path d="M 117.8877 38.3145 L 117.8916 38.3262 L 117.9004 38.3174 L 117.8877 38.3145 Z M 117.8877 38.3145 L 117.8848 38.3076 L 117.8584 38.2939 L 117.8477 38.2744 L 117.8398 38.2607 L 117.7998 38.2764 L 117.7881 38.2539 L 117.7627 38.2588 L 117.7197 38.2754 L 117.6162 38.2891 L 117.6016 38.2549 L 117.6035 38.2393 L 117.5781 38.2285 L 117.5625 38.2295 L 117.4922 38.2139 L 117.4131 38.2236 L 117.3711 38.2188 L 117.373 38.1992 L 117.3623 38.1797 L 117.3535 38.1592 L 117.3477 38.1543 L 117.3086 38.1611 L 117.293 38.1582 L 117.2432 38.1797 L 117.2041 38.1748 L 117.1924 38.2021 L 117.1523 38.2188 L 117.1436 38.2295 L 117.1377 38.2344 L 117.1328 38.249 L 117.1436 38.2891 L 117.1426 38.2998 L 117.1436 38.3193 L 117.1201 38.3301 L 117.0986 38.3555 L 117.0811 38.3701 L 117.1045 38.3896 L 117.0791 38.4346 L 117.1123 38.4814 L 117.0928 38.499 L 117.083 38.5293 L 117.0781 38.5439 L 117.083 38.5488 L 117.0977 38.584 L 117.1133 38.5889 L 117.1436 38.6074 L 117.1475 38.6143 L 117.1836 38.6182 L 117.2207 38.6475 L 117.2324 38.6182 L 117.2461 38.6084 L 117.2363 38.5615 L 117.2598 38.5566 L 117.293 38.5703 L 117.3027 38.5576 L 117.3438 38.5684 L 117.3574 38.5879 L 117.375 38.5645 L 117.3936 38.5781 L 117.4033 38.5928 L 117.4824 38.6162 L 117.5303 38.6074 L 117.5479 38.6143 L 117.5684 38.5957 L 117.6221 38.499 L 117.6436 38.4697 L 117.6885 38.3984 L 117.7363 38.3447 L 117.8281 38.3066 L 117.8604 38.3242 L 117.8877 38.3145 Z" fill="rgba(217,78,93,1)" fill-opacity="1" stroke="#444" stroke-width="0.001771330139912159" paint-order="fill" stroke-opacity="1" stroke-dasharray="" stroke-linecap="butt" stroke-linejoin="miter" stroke-miterlimit="10" transform="matrix(244.45623779296875,0,0,-325.941650390625,-27952.3203125,12753.2626953125)" clip-path="none"></path><path d="M 117.1924 38.2021 L 117.2041 38.1748 L 117.2432 38.1797 L 117.293 38.1582 L 117.3086 38.1611 L 117.3477 38.1543 L 117.3438 38.1318 L 117.3213 38.1211 L 117.3174 38.1045 L 117.292 38.1084 L 117.249 38.1211 L 117.2324 38.1182 L 117.2197 38.1211 L 117.1807 38.1055 L 117.1436 38.0479 L 117.1719 38.0078 L 117.1885 38.0117 L 117.2061 37.9512 L 117.1543 37.9404 L 117.124 37.96 L 117.0615 37.9688 L 117.0537 37.9805 L 117.0283 37.9941 L 117.0332 38.0088 L 117.0313 38.0244 L 117.0332 38.04 L 117.0117 38.0693 L 117.0176 38.1045 L 117.0254 38.1162 L 117.0723 38.1309 L 117.0869 38.127 L 117.1221 38.1504 L 117.1523 38.1611 L 117.1436 38.1699 L 117.1182 38.1797 L 117.1104 38.2158 L 117.1377 38.2344 L 117.1436 38.2295 L 117.1523 38.2188 L 117.1924 38.2021 Z" fill="rgba(140,177,152,1)" fill-opacity="1" stroke="#444" stroke-width="0.001771330139912159" paint-order="fill" stroke-opacity="1" stroke-dasharray="" stroke-linecap="butt" stroke-linejoin="miter" stroke-miterlimit="10" transform="matrix(244.45623779296875,0,0,-325.941650390625,-27952.3203125,12753.2626953125)" clip-path="none"></path><path d="M 116.748 38.1846 L 116.7725 38.168 L 116.7861 38.1709 L 116.8047 38.1445 L 116.835 38.1514 L 116.8633 38.1406 L 116.873 38.1035 L 116.9063 38.1113 L 116.9453 38.0859 L 116.9932 38.1006 L 117.0029 38.0986 L 117.0176 38.1045 L 117.0117 38.0693 L 117.0332 38.04 L 117.0313 38.0244 L 117.0332 38.0088 L 117.0283 37.9941 L 116.998 37.9717 L 117.0283 37.9492 L 117.0225 37.9092 L 117.0254 37.8896 L 117.0225 37.8691 L 117.0283 37.834 L 116.9629 37.8408 L 116.958 37.834 L 116.9482 37.834 L 116.9482 37.8447 L 116.9375 37.8447 L 116.8779 37.8447 L 116.8857 37.8672 L 116.8525 37.8887 L 116.8545 37.9189 L 116.8418 37.9297 L 116.8428 37.9492 L 116.8242 37.9658 L 116.6953 37.9863 L 116.6836 38 L 116.6729 38.0088 L 116.6533 38.0303 L 116.5576 38.0244 L 116.5479 38.0244 L 116.5527 38.0449 L 116.584 38.0381 L 116.5947 38.0547 L 116.623 38.0479 L 116.6328 38.0508 L 116.6436 38.0479 L 116.6641 38.0781 L 116.6611 38.0938 L 116.6201 38.1094 L 116.6494 38.1299 L 116.6953 38.1465 L 116.7432 38.1777 L 116.748 38.1846 Z" fill="rgba(227,197,103,1)" fill-opacity="1" stroke="#444" stroke-width="0.001771330139912159" paint-order="fill" stroke-opacity="1" stroke-dasharray="" stroke-linecap="butt" stroke-linejoin="miter" stroke-miterlimit="10" transform="matrix(244.45623779296875,0,0,-325.941650390625,-27952.3203125,12753.2626953125)" clip-path="none"></path><path d="M 116.875 38.6836 L 116.9131 38.6787 L 116.9473 38.6914 L 117.0313 38.7021 L 117.042 38.6885 L 117.0547 38.6787 L 117.0498 38.6377 L 117.0723 38.6084 L 117.083 38.5996 L 117.0918 38.5889 L 117.0977 38.584 L 117.083 38.5488 L 117.0781 38.5439 L 117.0537 38.5283 L 117.0215 38.5205 L 117.0137 38.5088 L 116.9619 38.4902 L 116.9395 38.4756 L 116.8926 38.4951 L 116.8877 38.4043 L 116.8564 38.4121 L 116.8379 38.4043 L 116.8174 38.4121 L 116.7832 38.3984 L 116.7529 38.4102 L 116.7334 38.3984 L 116.6621 38.3838 L 116.6436 38.4102 L 116.6182 38.4141 L 116.6211 38.4316 L 116.6396 38.4541 L 116.6221 38.4775 L 116.5938 38.4609 L 116.5879 38.4746 L 116.5928 38.4795 L 116.6084 38.4932 L 116.623 38.5107 L 116.6445 38.5088 L 116.668 38.5361 L 116.6406 38.5586 L 116.6631 38.5693 L 116.6621 38.5889 L 116.6729 38.5986 L 116.6826 38.6094 L 116.7236 38.6191 L 116.7422 38.6299 L 116.7783 38.6455 L 116.7627 38.6592 L 116.7637 38.6689 L 116.7627 38.6797 L 116.7637 38.6895 L 116.7578 38.7441 L 116.8652 38.7402 L 116.8613 38.7139 L 116.875 38.6836 Z" fill="rgba(231,175,98,1)" fill-opacity="1" stroke="#444" stroke-width="0.001771330139912159" paint-order="fill" stroke-opacity="1" stroke-dasharray="" stroke-linecap="butt" stroke-linejoin="miter" stroke-miterlimit="10" transform="matrix(244.45623779296875,0,0,-325.941650390625,-27952.3203125,12753.2626953125)" clip-path="none"></path><path d="M 116.1982 38.9248 L 116.2021 38.8789 L 116.2432 38.8613 L 116.2422 38.8486 L 116.2637 38.8398 L 116.2725 38.8193 L 116.335 38.8096 L 116.4063 38.7783 L 116.4229 38.7588 L 116.4277 38.7539 L 116.4248 38.7178 L 116.3623 38.6865 L 116.3574 38.6543 L 116.3418 38.6582 L 116.3184 38.6738 L 116.2793 38.665 L 116.2422 38.6406 L 116.2334 38.6279 L 116.2021 38.6201 L 116.1699 38.6064 L 116.1738 38.5889 L 116.1582 38.5703 L 116.1133 38.5801 L 116.1025 38.5781 L 116.0703 38.5859 L 116.043 38.5674 L 116.0332 38.5811 L 116.0039 38.5586 L 115.9746 38.5498 L 115.958 38.5742 L 115.9512 38.6289 L 115.9688 38.6426 L 115.9521 38.6992 L 115.9531 38.71 L 115.9424 38.7295 L 115.9482 38.7539 L 115.9717 38.7607 L 116.0039 38.8066 L 116.0342 38.8184 L 116.0313 38.8291 L 116.0439 38.8691 L 116.0381 38.8955 L 116.084 38.9121 L 116.1104 38.9063 L 116.1182 38.9346 L 116.1563 38.9434 L 116.1982 38.9248 Z" fill="rgba(229,166,97,1)" fill-opacity="1" stroke="#444" stroke-width="0.001771330139912159" paint-order="fill" stroke-opacity="1" stroke-dasharray="" stroke-linecap="butt" stroke-linejoin="miter" stroke-miterlimit="10" transform="matrix(244.45623779296875,0,0,-325.941650390625,-27952.3203125,12753.2626953125)" clip-path="none"></path><path d="M 115.9375 38.5342 L 115.9336 38.5186 L 115.918 38.4912 L 116.0107 38.4746 L 116.0225 38.4492 L 116.0342 38.4395 L 116.0137 38.4229 L 116.0439 38.4092 L 116.0303 38.3867 L 116.0332 38.3594 L 116.0225 38.3496 L 116.0176 38.334 L 116.0107 38.3242 L 115.9561 38.333 L 115.875 38.2725 L 115.8633 38.2998 L 115.8477 38.3047 L 115.833 38.3398 L 115.7627 38.3604 L 115.752 38.3584 L 115.7432 38.3701 L 115.7227 38.3584 L 115.6982 38.3643 L 115.707 38.376 L 115.7266 38.3906 L 115.71 38.4482 L 115.7295 38.4629 L 115.7422 38.4795 L 115.7734 38.4883 L 115.7822 38.5098 L 115.8174 38.5244 L 115.8604 38.5137 L 115.873 38.5322 L 115.9033 38.5254 L 115.9375 38.5342 Z M 115.8545 38.5361 L 115.8574 38.5244 L 115.8457 38.5273 L 115.8545 38.5361 Z" fill="rgba(169,184,136,1)" fill-opacity="1" stroke="#444" stroke-width="0.001771330139912159" paint-order="fill" stroke-opacity="1" stroke-dasharray="" stroke-linecap="butt" stroke-linejoin="miter" stroke-miterlimit="10" transform="matrix(244.45623779296875,0,0,-325.941650390625,-27952.3203125,12753.2626953125)" clip-path="none"></path><path d="M 116.5635 37.7803 L 116.6064 37.7539 L 116.6328 37.7705 L 116.6563 37.7559 L 116.6904 37.7607 L 116.6982 37.7344 L 116.6719 37.7197 L 116.6631 37.6992 L 116.6113 37.6338 L 116.5605 37.6025 L 116.5332 37.5684 L 116.5166 37.5557 L 116.5078 37.5439 L 116.4453 37.5049 L 116.4287 37.4707 L 116.3984 37.5049 L 116.373 37.5273 L 116.3633 37.5596 L 116.3408 37.5703 L 116.3281 37.584 L 116.334 37.6064 L 116.3662 37.6201 L 116.3623 37.6494 L 116.373 37.6582 L 116.3818 37.6904 L 116.4111 37.7295 L 116.4238 37.7393 L 116.4219 37.75 L 116.4502 37.7617 L 116.4678 37.7842 L 116.4971 37.791 L 116.5635 37.7803 Z" fill="rgba(185,188,127,1)" fill-opacity="1" stroke="#444" stroke-width="0.001771330139912159" paint-order="fill" stroke-opacity="1" stroke-dasharray="" stroke-linecap="butt" stroke-linejoin="miter" stroke-miterlimit="10" transform="matrix(244.45623779296875,0,0,-325.941650390625,-27952.3203125,12753.2626953125)" clip-path="none"></path><path d="M 116.1924 38.3799 L 116.3193 38.3447 L 116.334 38.3623 L 116.3926 38.3574 L 116.4297 38.3604 L 116.4424 38.3193 L 116.458 38.3145 L 116.4619 38.2686 L 116.4932 38.2578 L 116.498 38.2139 L 116.4785 38.1797 L 116.4395 38.2021 L 116.3184 38.1855 L 116.2891 38.2021 L 116.293 38.1592 L 116.2822 38.1494 L 116.2656 38.1299 L 116.2236 38.1123 L 116.2129 38.0986 L 116.1641 38.1123 L 116.1436 38.0791 L 116.1016 38.083 L 116.0635 38.0693 L 116.0479 38.0645 L 116.0283 38.0938 L 116.0439 38.1191 L 116.0439 38.1484 L 115.9883 38.127 L 115.9326 38.1484 L 115.9238 38.1602 L 115.8975 38.1641 L 115.8867 38.1699 L 115.9004 38.2021 L 115.8623 38.2227 L 115.8545 38.2607 L 115.8398 38.2686 L 115.8262 38.2998 L 115.8477 38.3047 L 115.8633 38.2998 L 115.875 38.2725 L 115.9561 38.333 L 116.0107 38.3242 L 116.0176 38.334 L 116.1025 38.3193 L 116.1416 38.3408 L 116.1631 38.3389 L 116.1729 38.3496 L 116.1836 38.3594 L 116.1924 38.3799 Z" fill="rgba(225,138,96,1)" fill-opacity="1" stroke="#444" stroke-width="0.001771330139912159" paint-order="fill" stroke-opacity="1" stroke-dasharray="" stroke-linecap="butt" stroke-linejoin="miter" stroke-miterlimit="10" transform="matrix(244.45623779296875,0,0,-325.941650390625,-27952.3203125,12753.2626953125)" clip-path="none"></path><path d="M 116.8574 38.2842 L 116.8574 38.2744 L 116.8477 38.2744 L 116.8477 38.2842 L 116.8574 38.2842 Z M 116.8574 38.2842 L 116.8623 38.3203 L 116.8682 38.3545 L 116.9014 38.3682 L 116.9238 38.3604 L 116.9316 38.3486 L 116.9482 38.3369 L 116.9414 38.3096 L 116.9453 38.2949 L 116.9336 38.2773 L 116.8916 38.25 L 116.8711 38.2588 L 116.875 38.2725 L 116.8574 38.2842 Z" fill="rgba(80,163,186,1)" fill-opacity="1" stroke="#444" stroke-width="0.001771330139912159" paint-order="fill" stroke-opacity="1" stroke-dasharray="" stroke-linecap="butt" stroke-linejoin="miter" stroke-miterlimit="10" transform="matrix(244.45623779296875,0,0,-325.941650390625,-27952.3203125,12753.2626953125)" clip-path="none"></path><path d="M 117.249 38.1211 L 117.292 38.1084 L 117.3174 38.1045 L 117.3457 38.0977 L 117.3408 38.0742 L 117.3516 38.0586 L 117.3848 38.0498 L 117.3662 38.0205 L 117.3936 38.0098 L 117.4023 37.9883 L 117.4648 37.9727 L 117.4561 37.9346 L 117.4922 37.9424 L 117.498 37.9346 L 117.4795 37.9219 L 117.4248 37.8398 L 117.3164 37.8672 L 117.3076 37.8545 L 117.292 37.8496 L 117.2627 37.8389 L 117.208 37.8447 L 117.1533 37.8389 L 117.0635 37.8477 L 117.0283 37.834 L 117.0225 37.8691 L 117.0254 37.8896 L 117.0225 37.9092 L 117.0283 37.9492 L 116.998 37.9717 L 117.0283 37.9941 L 117.0537 37.9805 L 117.0615 37.9688 L 117.124 37.96 L 117.1543 37.9404 L 117.2061 37.9512 L 117.1885 38.0117 L 117.1719 38.0078 L 117.1436 38.0479 L 117.1807 38.1055 L 117.2197 38.1211 L 117.2324 38.1182 L 117.249 38.1211 Z" fill="rgba(227,197,103,1)" fill-opacity="1" stroke="#444" stroke-width="0.001771330139912159" paint-order="fill" stroke-opacity="1" stroke-dasharray="" stroke-linecap="butt" stroke-linejoin="miter" stroke-miterlimit="10" transform="matrix(244.45623779296875,0,0,-325.941650390625,-27952.3203125,12753.2626953125)" clip-path="none"></path><path d="M 116.8477 38.2744 L 116.8428 38.2471 L 116.8223 38.25 L 116.7725 38.21 L 116.7715 38.2373 L 116.7842 38.2695 L 116.7607 38.2793 L 116.7734 38.2891 L 116.7725 38.2998 L 116.7832 38.3193 L 116.7822 38.3301 L 116.8379 38.4043 L 116.8564 38.4121 L 116.8877 38.4043 L 116.8623 38.3594 L 116.8682 38.3545 L 116.8623 38.3203 L 116.8574 38.2842 L 116.8477 38.2842 L 116.8477 38.2744 Z" fill="rgba(80,163,186,1)" fill-opacity="1" stroke="#444" stroke-width="0.001771330139912159" paint-order="fill" stroke-opacity="1" stroke-dasharray="" stroke-linecap="butt" stroke-linejoin="miter" stroke-miterlimit="10" transform="matrix(244.45623779296875,0,0,-325.941650390625,-27952.3203125,12753.2626953125)" clip-path="none"></path><text alignment-baseline="middle" x="0" y="0" fill="#000" fill-opacity="1" stroke="none" transform="matrix(1,0,0,1,500.8101806640625,345.67626953125)" clip-path="none" style="font-style: normal; font-variant: normal; font-weight: normal; font-size: 12px; line-height: normal; font-family: sans-serif;"><tspan alignment-baseline="middle" text-anchor="middle" x="0" y="0">泊头市</tspan></text><text alignment-baseline="middle" x="0" y="0" fill="#000" fill-opacity="1" stroke="none" transform="matrix(1,0,0,1,601.4335327148438,264.82745361328125)" clip-path="none" style="font-style: normal; font-variant: normal; font-weight: normal; font-size: 12px; line-height: normal; font-family: sans-serif;"><tspan alignment-baseline="middle" text-anchor="middle" x="0" y="0">沧县</tspan></text><text alignment-baseline="middle" x="0" y="0" fill="#000" fill-opacity="1" stroke="none" transform="matrix(1,0,0,1,570.0409545898438,405.8354187011719)" clip-path="none" style="font-style: normal; font-variant: normal; font-weight: normal; font-size: 12px; line-height: normal; font-family: sans-serif;"><tspan alignment-baseline="middle" text-anchor="middle" x="0" y="0">东光县</tspan></text><text alignment-baseline="middle" x="0" y="0" fill="#000" fill-opacity="1" stroke="none" transform="matrix(1,0,0,1,786.6854858398438,331.03436279296875)" clip-path="none" style="font-style: normal; font-variant: normal; font-weight: normal; font-size: 12px; line-height: normal; font-family: sans-serif;"><tspan alignment-baseline="middle" text-anchor="middle" x="0" y="0">海兴县</tspan></text><text alignment-baseline="middle" x="0" y="0" fill="#000" fill-opacity="1" stroke="none" transform="matrix(1,0,0,1,472.759765625,206.41897583007812)" clip-path="none" style="font-style: normal; font-variant: normal; font-weight: normal; font-size: 12px; line-height: normal; font-family: sans-serif;"><tspan alignment-baseline="middle" text-anchor="middle" x="0" y="0">河间市</tspan></text><text alignment-baseline="middle" x="0" y="0" fill="#000" fill-opacity="1" stroke="none" transform="matrix(1,0,0,1,768.66162109375,236.8168487548828)" clip-path="none" style="font-style: normal; font-variant: normal; font-weight: normal; font-size: 12px; line-height: normal; font-family: sans-serif;"><tspan alignment-baseline="middle" text-anchor="middle" x="0" y="0">黄骅市</tspan></text><text alignment-baseline="middle" x="0" y="0" fill="#000" fill-opacity="1" stroke="none" transform="matrix(1,0,0,1,692.9852294921875,338.9919128417969)" clip-path="none" style="font-style: normal; font-variant: normal; font-weight: normal; font-size: 12px; line-height: normal; font-family: sans-serif;"><tspan alignment-baseline="middle" text-anchor="middle" x="0" y="0">孟村回族自治县</tspan></text><text alignment-baseline="middle" x="0" y="0" fill="#000" fill-opacity="1" stroke="none" transform="matrix(1,0,0,1,597.8526000976562,364.45611572265625)" clip-path="none" style="font-style: normal; font-variant: normal; font-weight: normal; font-size: 12px; line-height: normal; font-family: sans-serif;"><tspan alignment-baseline="middle" text-anchor="middle" x="0" y="0">南皮县</tspan></text><text alignment-baseline="middle" x="0" y="0" fill="#000" fill-opacity="1" stroke="none" transform="matrix(1,0,0,1,610.62451171875,183.6603546142578)" clip-path="none" style="font-style: normal; font-variant: normal; font-weight: normal; font-size: 12px; line-height: normal; font-family: sans-serif;"><tspan alignment-baseline="middle" text-anchor="middle" x="0" y="0">青县</tspan></text><text alignment-baseline="middle" x="0" y="0" fill="#000" fill-opacity="1" stroke="none" transform="matrix(1,0,0,1,449.8420104980469,124.13780212402344)" clip-path="none" style="font-style: normal; font-variant: normal; font-weight: normal; font-size: 12px; line-height: normal; font-family: sans-serif;"><tspan alignment-baseline="middle" text-anchor="middle" x="0" y="0">任丘市</tspan></text><text alignment-baseline="middle" x="0" y="0" fill="#000" fill-opacity="1" stroke="none" transform="matrix(1,0,0,1,373.0913391113281,235.70278930664062)" clip-path="none" style="font-style: normal; font-variant: normal; font-weight: normal; font-size: 12px; line-height: normal; font-family: sans-serif;"><tspan alignment-baseline="middle" text-anchor="middle" x="0" y="0">肃宁县</tspan></text><text alignment-baseline="middle" x="0" y="0" fill="#000" fill-opacity="1" stroke="none" transform="matrix(1,0,0,1,530.05419921875,487.79827880859375)" clip-path="none" style="font-style: normal; font-variant: normal; font-weight: normal; font-size: 12px; line-height: normal; font-family: sans-serif;"><tspan alignment-baseline="middle" text-anchor="middle" x="0" y="0">吴桥县</tspan></text><text alignment-baseline="middle" x="0" y="0" fill="#000" fill-opacity="1" stroke="none" transform="matrix(1,0,0,1,444.23193359375,295.0661926269531)" clip-path="none" style="font-style: normal; font-variant: normal; font-weight: normal; font-size: 12px; line-height: normal; font-family: sans-serif;"><tspan alignment-baseline="middle" text-anchor="middle" x="0" y="0">献县</tspan></text><text alignment-baseline="middle" x="0" y="0" fill="#000" fill-opacity="1" stroke="none" transform="matrix(1,0,0,1,624.112548828125,266.7372741699219)" clip-path="none" style="font-style: normal; font-variant: normal; font-weight: normal; font-size: 12px; line-height: normal; font-family: sans-serif;"><tspan alignment-baseline="middle" text-anchor="middle" x="0" y="0">新华区</tspan></text><text alignment-baseline="middle" x="0" y="0" fill="#000" fill-opacity="1" stroke="none" transform="matrix(1,0,0,1,709.6961059570312,374.8009338378906)" clip-path="none" style="font-style: normal; font-variant: normal; font-weight: normal; font-size: 12px; line-height: normal; font-family: sans-serif;"><tspan alignment-baseline="middle" text-anchor="middle" x="0" y="0">盐山县</tspan></text><text alignment-baseline="middle" x="0" y="0" fill="#000" fill-opacity="1" stroke="none" transform="matrix(1,0,0,1,606.0886840820312,266.1006774902344)" clip-path="none" style="font-style: normal; font-variant: normal; font-weight: normal; font-size: 12px; line-height: normal; font-family: sans-serif;"><tspan alignment-baseline="middle" text-anchor="middle" x="0" y="0">运河区</tspan></text><path d="M -7.9062 -167 L 73.3126 -167 L 73.3126 27 L -7.9062 27 L -7.9062 -167 Z" fill="rgba(0,0,0,0)" fill-opacity="1" stroke="#ccc" stroke-width="0" paint-order="fill" stroke-opacity="1" stroke-dasharray="" stroke-linecap="butt" stroke-linejoin="miter" stroke-miterlimit="10" transform="matrix(1,0,0,1,7.90625,573)" clip-path="none"></path><path d="M -5 -5 L 5 -5 L 5 5 L -5 5 L -5 -5 Z" fill="rgba(0,0,0,0)" fill-opacity="1" stroke="#ccc" stroke-width="0" paint-order="fill" stroke-opacity="1" stroke-dasharray="" stroke-linecap="butt" stroke-linejoin="miter" stroke-miterlimit="10" transform="matrix(1,0,0,1,600,5)" clip-path="none"></path><text alignment-baseline="middle" x="38" y="6" fill="#000" fill-opacity="1" stroke="none" transform="matrix(1,0,0,1,7.90625,573)" clip-path="none" style="font-style: normal; font-variant: normal; font-weight: normal; font-size: 12px; line-height: normal; font-family: sans-serif;"><tspan alignment-baseline="middle" text-anchor="start" x="38" y="6">109</tspan></text><text alignment-baseline="middle" x="38" y="-146" fill="#000" fill-opacity="1" stroke="none" transform="matrix(1,0,0,1,7.90625,573)" clip-path="none" style="font-style: normal; font-variant: normal; font-weight: normal; font-size: 12px; line-height: normal; font-family: sans-serif;"><tspan alignment-baseline="middle" text-anchor="start" x="38" y="-146">1545</tspan></text><path d="M 0 0 L 20 0 L 20 140 L 0 140 Z" fill-opacity="undefined" stroke="none" transform="matrix(1,0,0,-1,7.90625,573)" clip-path="none" fill="url(#zr2322-gradient-0)"></path><path d="M 0 0 L 20 0 L 20 140 L 0 140 Z" fill-opacity="undefined" stroke="none" transform="matrix(1,0,0,-1,7.90625,573)" clip-path="none" fill="url(#zr2322-gradient-1)"></path><path d="M 0 0 L 12 0 L 12 -12 Z" fill="rgba(80,163,186,1)" fill-opacity="1" stroke="none" transform="matrix(1,0,0,-1,27.90625,573)" clip-path="none"></path><path d="M 0 0 L 12 0 L 12 12 Z" fill="rgba(217,78,93,1)" fill-opacity="1" stroke="none" transform="matrix(1,0,0,-1,27.90625,433)" clip-path="none"></path><text alignment-baseline="hanging" x="10" y="10" fill="#000" fill-opacity="1" stroke="none" transform="matrix(1,0,0,1,7.90625,573)" clip-path="none" style="font-style: normal; font-variant: normal; font-weight: normal; font-size: 12px; line-height: normal; font-family: sans-serif;"><tspan alignment-baseline="hanging" text-anchor="middle" x="10" y="10">low</tspan></text><text alignment-baseline="baseline" x="10" y="-150" fill="#000" fill-opacity="1" stroke="none" transform="matrix(1,0,0,1,7.90625,573)" clip-path="none" style="font-style: normal; font-variant: normal; font-weight: normal; font-size: 12px; line-height: normal; font-family: sans-serif;"><tspan alignment-baseline="baseline" text-anchor="middle" x="10" y="-150">high</tspan></text><path d="M -14.958 -15 L 14.9579 -15 L 14.9579 71 L -14.958 71 L -14.958 -15 Z" fill="rgba(0, 0, 0, 0.002)" fill-opacity="1" stroke="#ccc" stroke-width="0" paint-order="fill" stroke-opacity="1" stroke-dasharray="" stroke-linecap="butt" stroke-linejoin="miter" stroke-miterlimit="10" transform="matrix(1,0,0,1,1154.9580078125,272)" clip-path="none"></path><path d="M -6.9994 0.9083 M 4.5416 -2.9654 L 7.1597 -2.9654 L 7.1597 -5.6904 M 7.0261 -2.6448 C 5.9041 -5.6102 2.8051 -7.8543 -0.8549 -7.4536 C -4.6485 -7.0261 -7.5872 -3.6867 -7.4536 0.1603 M -4.5416 2.9654 L -7.1864 2.9654 L -7.1864 5.6904 M -7.0261 2.6448 C -5.9041 5.6102 -2.8051 7.8543 0.8549 7.4536 C 4.6485 7.0261 7.5872 3.6867 7.4536 -0.1603" fill="none" stroke="#666" stroke-width="1" paint-order="fill" stroke-opacity="1" stroke-dasharray="" stroke-linecap="butt" stroke-linejoin="miter" stroke-miterlimit="10" transform="matrix(1,0,0,1,1154.9580078125,272)" clip-path="none"></path><path d="M -3.683 -3.4018 L 0.4687 -3.4018 M -3.683 -3.4018 L 0.4687 -3.4018 M 3.7902 -0.1339 L -3.7098 -0.1339 M -5.2902 -7.5 L -5.2902 7.5 L 5.2902 7.5 L 5.2902 -4.0714 L 1.9152 -7.5 L -5.2902 -7.5 Z M 1.9152 -7.4464 L 1.9152 -4.0446 L 5.2902 -4.0446 M 3.7902 3.1339 L -3.7098 3.1339" fill="none" stroke="#666" stroke-width="1" paint-order="fill" stroke-opacity="1" stroke-dasharray="" stroke-linecap="butt" stroke-linejoin="miter" stroke-miterlimit="10" transform="matrix(1,0,0,1,1154.9580078125,300)" clip-path="none"></path><path d="M -6.4526 -1.5776 L -0.0905 4.2672 L 6.4784 -1.4483 M -6.4784 3.7759 L -6.4784 7.5 L 6.2457 7.5 L 6.2457 3.7759 M -0.1164 4.1638 L -0.1164 -7.5" fill="none" stroke="#666" stroke-width="1" paint-order="fill" stroke-opacity="1" stroke-dasharray="" stroke-linecap="butt" stroke-linejoin="miter" stroke-miterlimit="10" transform="matrix(1,0,0,1,1154.9580078125,328)" clip-path="none"></path><path d="M -5 -5 L 185 -5 L 185 23 L -5 23 L -5 -5 Z" fill="rgba(0,0,0,0)" fill-opacity="1" stroke="#ccc" stroke-width="0" paint-order="fill" stroke-opacity="1" stroke-dasharray="" stroke-linecap="butt" stroke-linejoin="miter" stroke-miterlimit="10" transform="matrix(1,0,0,1,5,5)" clip-path="none"></path><text alignment-baseline="hanging" x="0" y="0" fill="#000" fill-opacity="1" stroke="none" transform="matrix(1,0,0,1,5,5)" clip-path="none" style="font-style: normal; font-weight: bolder; font-variant: normal; font-size: 18px; line-height: normal; font-family: sans-serif;"><tspan alignment-baseline="hanging" text-anchor="start" x="0" y="0">沧州市图例－各区面积</tspan></text><defs><linearGradient id="zr2322-gradient-0" x1="0" y1="0" x2="0" y2="1" gradientUnits="objectBoundingBox"><stop offset="0%" stop-color="rgba(170,170,170,1)"></stop><stop offset="1%" stop-color="rgba(170,170,170,1)"></stop><stop offset="2%" stop-color="rgba(170,170,170,1)"></stop><stop offset="3%" stop-color="rgba(170,170,170,1)"></stop><stop offset="4%" stop-color="rgba(170,170,170,1)"></stop><stop offset="5%" stop-color="rgba(170,170,170,1)"></stop><stop offset="6%" stop-color="rgba(170,170,170,1)"></stop><stop offset="7.000000000000001%" stop-color="rgba(170,170,170,1)"></stop><stop offset="8%" stop-color="rgba(170,170,170,1)"></stop><stop offset="9%" stop-color="rgba(170,170,170,1)"></stop><stop offset="10%" stop-color="rgba(170,170,170,1)"></stop><stop offset="11%" stop-color="rgba(170,170,170,1)"></stop><stop offset="12%" stop-color="rgba(170,170,170,1)"></stop><stop offset="13%" stop-color="rgba(170,170,170,1)"></stop><stop offset="14.000000000000002%" stop-color="rgba(170,170,170,1)"></stop><stop offset="15%" stop-color="rgba(170,170,170,1)"></stop><stop offset="16%" stop-color="rgba(170,170,170,1)"></stop><stop offset="17%" stop-color="rgba(170,170,170,1)"></stop><stop offset="18%" stop-color="rgba(170,170,170,1)"></stop><stop offset="19%" stop-color="rgba(170,170,170,1)"></stop><stop offset="20%" stop-color="rgba(170,170,170,1)"></stop><stop offset="21%" stop-color="rgba(170,170,170,1)"></stop><stop offset="22%" stop-color="rgba(170,170,170,1)"></stop><stop offset="23%" stop-color="rgba(170,170,170,1)"></stop><stop offset="24%" stop-color="rgba(170,170,170,1)"></stop><stop offset="25%" stop-color="rgba(170,170,170,1)"></stop><stop offset="26%" stop-color="rgba(170,170,170,1)"></stop><stop offset="27%" stop-color="rgba(170,170,170,1)"></stop><stop offset="28.000000000000004%" stop-color="rgba(170,170,170,1)"></stop><stop offset="28.999999999999996%" stop-color="rgba(170,170,170,1)"></stop><stop offset="30%" stop-color="rgba(170,170,170,1)"></stop><stop offset="31%" stop-color="rgba(170,170,170,1)"></stop><stop offset="32%" stop-color="rgba(170,170,170,1)"></stop><stop offset="33%" stop-color="rgba(170,170,170,1)"></stop><stop offset="34%" stop-color="rgba(170,170,170,1)"></stop><stop offset="35%" stop-color="rgba(170,170,170,1)"></stop><stop offset="36%" stop-color="rgba(170,170,170,1)"></stop><stop offset="37%" stop-color="rgba(170,170,170,1)"></stop><stop offset="38%" stop-color="rgba(170,170,170,1)"></stop><stop offset="39%" stop-color="rgba(170,170,170,1)"></stop><stop offset="40%" stop-color="rgba(170,170,170,1)"></stop><stop offset="41%" stop-color="rgba(170,170,170,1)"></stop><stop offset="42%" stop-color="rgba(170,170,170,1)"></stop><stop offset="43%" stop-color="rgba(170,170,170,1)"></stop><stop offset="44%" stop-color="rgba(170,170,170,1)"></stop><stop offset="45%" stop-color="rgba(170,170,170,1)"></stop><stop offset="46%" stop-color="rgba(170,170,170,1)"></stop><stop offset="47%" stop-color="rgba(170,170,170,1)"></stop><stop offset="48%" stop-color="rgba(170,170,170,1)"></stop><stop offset="49%" stop-color="rgba(170,170,170,1)"></stop><stop offset="50%" stop-color="rgba(170,170,170,1)"></stop><stop offset="51%" stop-color="rgba(170,170,170,1)"></stop><stop offset="52%" stop-color="rgba(170,170,170,1)"></stop><stop offset="53%" stop-color="rgba(170,170,170,1)"></stop><stop offset="54%" stop-color="rgba(170,170,170,1)"></stop><stop offset="55.00000000000001%" stop-color="rgba(170,170,170,1)"></stop><stop offset="56.00000000000001%" stop-color="rgba(170,170,170,1)"></stop><stop offset="56.99999999999999%" stop-color="rgba(170,170,170,1)"></stop><stop offset="57.99999999999999%" stop-color="rgba(170,170,170,1)"></stop><stop offset="59%" stop-color="rgba(170,170,170,1)"></stop><stop offset="60%" stop-color="rgba(170,170,170,1)"></stop><stop offset="61%" stop-color="rgba(170,170,170,1)"></stop><stop offset="62%" stop-color="rgba(170,170,170,1)"></stop><stop offset="63%" stop-color="rgba(170,170,170,1)"></stop><stop offset="64%" stop-color="rgba(170,170,170,1)"></stop><stop offset="65%" stop-color="rgba(170,170,170,1)"></stop><stop offset="66%" stop-color="rgba(170,170,170,1)"></stop><stop offset="67%" stop-color="rgba(170,170,170,1)"></stop><stop offset="68%" stop-color="rgba(170,170,170,1)"></stop><stop offset="69%" stop-color="rgba(170,170,170,1)"></stop><stop offset="70%" stop-color="rgba(170,170,170,1)"></stop><stop offset="71%" stop-color="rgba(170,170,170,1)"></stop><stop offset="72%" stop-color="rgba(170,170,170,1)"></stop><stop offset="73%" stop-color="rgba(170,170,170,1)"></stop><stop offset="74%" stop-color="rgba(170,170,170,1)"></stop><stop offset="75%" stop-color="rgba(170,170,170,1)"></stop><stop offset="76%" stop-color="rgba(170,170,170,1)"></stop><stop offset="77%" stop-color="rgba(170,170,170,1)"></stop><stop offset="78%" stop-color="rgba(170,170,170,1)"></stop><stop offset="79%" stop-color="rgba(170,170,170,1)"></stop><stop offset="80%" stop-color="rgba(170,170,170,1)"></stop><stop offset="81%" stop-color="rgba(170,170,170,1)"></stop><stop offset="82%" stop-color="rgba(170,170,170,1)"></stop><stop offset="83%" stop-color="rgba(170,170,170,1)"></stop><stop offset="84%" stop-color="rgba(170,170,170,1)"></stop><stop offset="85%" stop-color="rgba(170,170,170,1)"></stop><stop offset="86%" stop-color="rgba(170,170,170,1)"></stop><stop offset="87%" stop-color="rgba(170,170,170,1)"></stop><stop offset="88%" stop-color="rgba(170,170,170,1)"></stop><stop offset="89%" stop-color="rgba(170,170,170,1)"></stop><stop offset="90%" stop-color="rgba(170,170,170,1)"></stop><stop offset="91%" stop-color="rgba(170,170,170,1)"></stop><stop offset="92%" stop-color="rgba(170,170,170,1)"></stop><stop offset="93%" stop-color="rgba(170,170,170,1)"></stop><stop offset="94%" stop-color="rgba(170,170,170,1)"></stop><stop offset="95%" stop-color="rgba(170,170,170,1)"></stop><stop offset="96%" stop-color="rgba(170,170,170,1)"></stop><stop offset="97%" stop-color="rgba(170,170,170,1)"></stop><stop offset="98%" stop-color="rgba(170,170,170,1)"></stop><stop offset="99%" stop-color="rgba(170,170,170,1)"></stop><stop offset="100%" stop-color="rgba(170,170,170,1)"></stop></linearGradient><linearGradient id="zr2322-gradient-1" x1="0" y1="0" x2="0" y2="1" gradientUnits="objectBoundingBox"><stop offset="0%" stop-color="rgba(80,163,186,1)"></stop><stop offset="1%" stop-color="rgba(83,164,184,1)"></stop><stop offset="2%" stop-color="rgba(86,164,183,1)"></stop><stop offset="3%" stop-color="rgba(89,165,181,1)"></stop><stop offset="4%" stop-color="rgba(92,166,179,1)"></stop><stop offset="5%" stop-color="rgba(95,167,177,1)"></stop><stop offset="6%" stop-color="rgba(98,167,176,1)"></stop><stop offset="7.000000000000001%" stop-color="rgba(102,168,174,1)"></stop><stop offset="8%" stop-color="rgba(105,169,172,1)"></stop><stop offset="9%" stop-color="rgba(108,169,170,1)"></stop><stop offset="10%" stop-color="rgba(111,170,169,1)"></stop><stop offset="11%" stop-color="rgba(114,171,167,1)"></stop><stop offset="12%" stop-color="rgba(117,172,165,1)"></stop><stop offset="13%" stop-color="rgba(120,172,163,1)"></stop><stop offset="14.000000000000002%" stop-color="rgba(123,173,162,1)"></stop><stop offset="15%" stop-color="rgba(126,174,160,1)"></stop><stop offset="16%" stop-color="rgba(129,175,158,1)"></stop><stop offset="17%" stop-color="rgba(132,175,156,1)"></stop><stop offset="18%" stop-color="rgba(135,176,155,1)"></stop><stop offset="19%" stop-color="rgba(139,177,153,1)"></stop><stop offset="20%" stop-color="rgba(142,177,151,1)"></stop><stop offset="21%" stop-color="rgba(145,178,149,1)"></stop><stop offset="22%" stop-color="rgba(148,179,148,1)"></stop><stop offset="23%" stop-color="rgba(151,180,146,1)"></stop><stop offset="24%" stop-color="rgba(154,180,144,1)"></stop><stop offset="25%" stop-color="rgba(157,181,143,1)"></stop><stop offset="26%" stop-color="rgba(160,182,141,1)"></stop><stop offset="27%" stop-color="rgba(163,182,139,1)"></stop><stop offset="28.000000000000004%" stop-color="rgba(166,183,137,1)"></stop><stop offset="28.999999999999996%" stop-color="rgba(169,184,136,1)"></stop><stop offset="30%" stop-color="rgba(172,185,134,1)"></stop><stop offset="31%" stop-color="rgba(175,185,132,1)"></stop><stop offset="32%" stop-color="rgba(179,186,130,1)"></stop><stop offset="33%" stop-color="rgba(182,187,129,1)"></stop><stop offset="34%" stop-color="rgba(185,187,127,1)"></stop><stop offset="35%" stop-color="rgba(188,188,125,1)"></stop><stop offset="36%" stop-color="rgba(191,189,123,1)"></stop><stop offset="37%" stop-color="rgba(194,190,122,1)"></stop><stop offset="38%" stop-color="rgba(197,190,120,1)"></stop><stop offset="39%" stop-color="rgba(200,191,118,1)"></stop><stop offset="40%" stop-color="rgba(203,192,116,1)"></stop><stop offset="41%" stop-color="rgba(206,193,115,1)"></stop><stop offset="42%" stop-color="rgba(209,193,113,1)"></stop><stop offset="43%" stop-color="rgba(212,194,111,1)"></stop><stop offset="44%" stop-color="rgba(216,195,109,1)"></stop><stop offset="45%" stop-color="rgba(219,195,108,1)"></stop><stop offset="46%" stop-color="rgba(222,196,106,1)"></stop><stop offset="47%" stop-color="rgba(225,197,104,1)"></stop><stop offset="48%" stop-color="rgba(228,198,102,1)"></stop><stop offset="49%" stop-color="rgba(231,198,101,1)"></stop><stop offset="50%" stop-color="rgba(234,199,99,1)"></stop><stop offset="51%" stop-color="rgba(234,197,99,1)"></stop><stop offset="52%" stop-color="rgba(233,194,99,1)"></stop><stop offset="53%" stop-color="rgba(233,192,99,1)"></stop><stop offset="54%" stop-color="rgba(233,189,99,1)"></stop><stop offset="55.00000000000001%" stop-color="rgba(232,187,98,1)"></stop><stop offset="56.00000000000001%" stop-color="rgba(232,184,98,1)"></stop><stop offset="56.99999999999999%" stop-color="rgba(232,182,98,1)"></stop><stop offset="57.99999999999999%" stop-color="rgba(231,180,98,1)"></stop><stop offset="59%" stop-color="rgba(231,177,98,1)"></stop><stop offset="60%" stop-color="rgba(231,175,98,1)"></stop><stop offset="61%" stop-color="rgba(230,172,98,1)"></stop><stop offset="62%" stop-color="rgba(230,170,98,1)"></stop><stop offset="63%" stop-color="rgba(230,168,97,1)"></stop><stop offset="64%" stop-color="rgba(229,165,97,1)"></stop><stop offset="65%" stop-color="rgba(229,163,97,1)"></stop><stop offset="66%" stop-color="rgba(229,160,97,1)"></stop><stop offset="67%" stop-color="rgba(228,158,97,1)"></stop><stop offset="68%" stop-color="rgba(228,155,97,1)"></stop><stop offset="69%" stop-color="rgba(228,153,97,1)"></stop><stop offset="70%" stop-color="rgba(227,151,97,1)"></stop><stop offset="71%" stop-color="rgba(227,148,96,1)"></stop><stop offset="72%" stop-color="rgba(227,146,96,1)"></stop><stop offset="73%" stop-color="rgba(226,143,96,1)"></stop><stop offset="74%" stop-color="rgba(226,141,96,1)"></stop><stop offset="75%" stop-color="rgba(226,139,96,1)"></stop><stop offset="76%" stop-color="rgba(225,136,96,1)"></stop><stop offset="77%" stop-color="rgba(225,134,96,1)"></stop><stop offset="78%" stop-color="rgba(224,131,96,1)"></stop><stop offset="79%" stop-color="rgba(224,129,96,1)"></stop><stop offset="80%" stop-color="rgba(224,126,95,1)"></stop><stop offset="81%" stop-color="rgba(223,124,95,1)"></stop><stop offset="82%" stop-color="rgba(223,122,95,1)"></stop><stop offset="83%" stop-color="rgba(223,119,95,1)"></stop><stop offset="84%" stop-color="rgba(222,117,95,1)"></stop><stop offset="85%" stop-color="rgba(222,114,95,1)"></stop><stop offset="86%" stop-color="rgba(222,112,95,1)"></stop><stop offset="87%" stop-color="rgba(221,109,95,1)"></stop><stop offset="88%" stop-color="rgba(221,107,94,1)"></stop><stop offset="89%" stop-color="rgba(221,105,94,1)"></stop><stop offset="90%" stop-color="rgba(220,102,94,1)"></stop><stop offset="91%" stop-color="rgba(220,100,94,1)"></stop><stop offset="92%" stop-color="rgba(220,97,94,1)"></stop><stop offset="93%" stop-color="rgba(219,95,94,1)"></stop><stop offset="94%" stop-color="rgba(219,93,94,1)"></stop><stop offset="95%" stop-color="rgba(219,90,94,1)"></stop><stop offset="96%" stop-color="rgba(218,88,93,1)"></stop><stop offset="97%" stop-color="rgba(218,85,93,1)"></stop><stop offset="98%" stop-color="rgba(218,83,93,1)"></stop><stop offset="99%" stop-color="rgba(217,80,93,1)"></stop><stop offset="100%" stop-color="rgba(217,78,93,1)"></stop></linearGradient></defs></svg>
